# xmcd
#
# Track frame offsets: 
#        150
#        17182
#        28896
#        46133
#        61692
#        74752
#        97955
#        114552
#        139138
#        153512
#        170283
#        188991
#        202405
#        221650
#        238718
#
# Disc length: 3474 seconds
#
# Revision: 0
# Processed by: cddbd v1.5.2PL0 Copyright (c) Steve Scherf et al.
# Submitted via: ExactAudioCopyFreeDBPlugin 1.0
#
DISCID=df0d900f
DTITLE=Various Artist - The Best of WUNC's Back Porch Music Volume 15
DYEAR=2012
DGENRE=Bluegrass
TTITLE0=Dana and Susan Robinson - Raleigh And Spencer
TTITLE1=Mandolin Orange - These Old Wheels
TTITLE2=Town Mountain - Diggin' On The Mountainside
TTITLE3=Grayson and Whitter - I've Always Been A Rambler
TTITLE4=John McCutcheon - Pretty Boy Floyd
TTITLE5=Paul Geremia - Special Agent (Road Police Blues)
TTITLE6=Auldridge, Bennett and Gaudreau - Welcome To New York
TTITLE7=Dave Alvin and The Guilty Men - Andersonville
TTITLE8=Red Molly - Walk Beside Me
TTITLE9=Jonathan Byrd - Chicken Wire
TTITLE10=Al Petteway and Amy White - The Parting Glass
TTITLE11=Laurie Lewis - Old Ten Broeck
TTITLE12=Tommy Jarrell - Little Maggie
TTITLE13=Danny Gotham - Dola Waltz
TTITLE14=Po' Girl - Ain't Life Sweet
EXTD=
EXTT0=
EXTT1=
EXTT2=
EXTT3=
EXTT4=
EXTT5=
EXTT6=
EXTT7=
EXTT8=
EXTT9=
EXTT10=
EXTT11=
EXTT12=
EXTT13=
EXTT14=
PLAYORDER=
